<?xml version="1.0" encoding="utf-8"?>
<svg version="1.0" xmlns="http://www.w3.org/2000/svg" width="500.000000pt" height="500.000000pt" viewBox="0 0 500.000000 500.000000" preserveAspectRatio="xMidYMid meet">
  <g transform="translate(0.000000,500.000000) scale(0.100000,-0.100000)" fill="#000000" stroke="none">
    <path d="M2257 4515 c-86 -24 -158 -68 -252 -155 -73 -68 -113 -96 -189 -133 -96 -47 -97 -47 -199 -47 -56 0 -132 5 -170 10 -37 6 -120 10 -185 11 -106 1 -126 -2 -212 -31 -119 -39 -169 -69 -213 -123 -47 -57 -72 -111 -86 -184 -18 -92 -7 -168 45 -316 120 -344 128 -381 121 -531 -5 -98 -11 -127 -53 -246 -98 -284 -199 -454 -395 -665 -175 -189 -270 -326 -325 -473 -37 -101 -43 -231 -15 -341 38 -145 114 -229 285 -314 144 -72 238 -89 446 -81 169 7 271 -3 421 -41 69 -18 198 -71 219 -90 9 -8 35 -21 59 -30 24 -8 93 -39 155 -69 204 -98 443 -170 605 -181 52 -3 102 -10 111 -15 9 -5 34 -7 56 -5 282 29 491 67 661 119 43 13 94 27 114 30 21 4 50 13 65 21 72 36 348 82 514 86 147 4 407 -11 488 -27 249 -52 422 17 500 201 36 83 62 186 62 247 0 74 -31 182 -76 268 -50 91 -101 162 -244 335 -105 127 -221 315 -251 407 -17 52 -19 77 -14 148 13 164 63 271 176 371 130 116 175 243 129 359 -46 117 -135 188 -392 313 -137 66 -162 83 -240 156 -153 144 -209 235 -298 481 -61 169 -115 259 -192 317 -124 94 -230 119 -392 93 -200 -31 -228 -33 -319 -15 -113 21 -154 36 -226 80 -63 39 -169 75 -216 74 -16 0 -52 -7 -78 -14z" style="fill: rgb(197, 123, 230);"/>
  </g>
</svg>